<?xml version="1.0" encoding="UTF-8"?>
<svg version="1.1" xmlns="http://www.w3.org/2000/svg" width="180" height="180">
<path d="M0 0 C8.91374814 7.09492264 14.35660809 17.11440198 15.7578125 28.3984375 C16.19591261 41.31532456 11.90231479 51.26303922 3.31640625 60.84375 C-4.85543426 68.1786236 -15.77953265 71.65411889 -26.66796875 71.2265625 C-38.78640419 69.68821189 -47.444573 64.14466097 -55.1484375 54.9140625 C-61.79479126 45.95078643 -63.88381241 35.76931977 -62.40625 24.78125 C-60.27498681 14.71356865 -54.82188132 5.61251669 -46.43359375 -0.34375 C-42.0525282 -3.1330284 -37.68957253 -4.83836954 -32.68359375 -6.15625 C-31.83796875 -6.383125 -30.99234375 -6.61 -30.12109375 -6.84375 C-19.43297387 -8.21402178 -9.04898175 -5.92613893 0 0 Z " fill="#8EDD65" transform="translate(113.68359375,58.15625)"/>
<path d="M0 0 C22.13099487 0 43.0678006 13.09283294 58.3125 28.3125 C68.41121939 39.41561282 74.75814564 52.14359899 79.3125 66.3125 C79.69019531 67.48167969 80.06789062 68.65085937 80.45703125 69.85546875 C81.97386573 76.23097415 81.70655088 82.85931133 81.6875 89.375 C81.68695618 90.06947235 81.68641235 90.7639447 81.68585205 91.47946167 C81.64919134 101.62846541 81.13609245 110.75351887 77.3125 120.3125 C76.9 121.4675 76.4875 122.6225 76.0625 123.8125 C72.49239278 133.06232325 67.33005489 140.54148541 61.3125 148.3125 C60.57773437 149.32570312 60.57773437 149.32570312 59.828125 150.359375 C50.98105413 161.82780021 36.59917536 170.45951167 23.3125 175.5625 C22.67199707 175.80911377 22.03149414 176.05572754 21.37158203 176.30981445 C3.05321967 182.99479117 -19.36614789 182.82392131 -37.6875 176.3125 C-38.74582031 175.93867188 -39.80414063 175.56484375 -40.89453125 175.1796875 C-63.92955262 166.24955084 -81.72516479 149.83678031 -91.9609375 127.3828125 C-97.10955702 115.4834006 -100.23988733 104.41791723 -98.6875 91.3125 C-97.6975 90.3225 -97.6975 90.3225 -96.6875 89.3125 C-94.1875 89.5 -94.1875 89.5 -91.6875 90.3125 C-89.35086137 93.81745795 -89.31182927 95.775315 -88.9375 99.9375 C-86.92912312 117.76732621 -79.14324451 133.52781857 -66.6875 146.3125 C-66.0996875 146.95058594 -65.511875 147.58867187 -64.90625 148.24609375 C-50.83354674 163.14855546 -30.70270582 170.3939818 -10.53173828 171.35913086 C2.39046445 171.64760986 14.58572919 168.68342259 26.3125 163.3125 C27.23289062 162.89355469 28.15328125 162.47460938 29.1015625 162.04296875 C47.43395013 152.87677494 60.2871666 136.80366781 67.6328125 117.91796875 C74.70857657 96.24516548 73.57253668 74.3926177 63.4375 53.875 C60.54561866 48.26658336 57.46591425 43.08942922 53.3125 38.3125 C52.64605469 37.50425781 51.97960937 36.69601563 51.29296875 35.86328125 C38.04013552 20.3358812 19.17196897 11.65230217 -1 9.6875 C-4.6875 9.3125 -4.6875 9.3125 -7.6875 7.3125 C-7.9375 4.25 -7.9375 4.25 -7.6875 1.3125 C-5.77344031 -0.60155969 -2.54723898 0.04974054 0 0 Z " fill="#92DC6C" transform="translate(98.6875,-0.3125)"/>
<path d="M0 0 C10.51074221 0.63278958 20.50535005 4.53920059 29.828125 9.23046875 C30.59125 9.59398437 31.354375 9.9575 32.140625 10.33203125 C38.99449824 13.63297755 38.99449824 13.63297755 41.828125 16.23046875 C41.828125 16.89046875 41.828125 17.55046875 41.828125 18.23046875 C42.70210937 18.6171875 42.70210937 18.6171875 43.59375 19.01171875 C46.0084153 20.32880892 47.64552677 21.78135259 49.578125 23.73046875 C50.19171875 24.33890625 50.8053125 24.94734375 51.4375 25.57421875 C52.828125 27.23046875 52.828125 27.23046875 52.828125 29.23046875 C53.488125 29.23046875 54.148125 29.23046875 54.828125 29.23046875 C67.26918058 50.41748006 74.3484179 71.65755944 68.203125 96.41796875 C61.30057906 118.15978593 47.18298822 134.09906624 27.390625 144.91796875 C16.31211582 150.29376993 3.15979289 153.28500928 -9.171875 152.23046875 C-10.02394531 152.19824219 -10.87601563 152.16601562 -11.75390625 152.1328125 C-28.73355776 151.18544997 -46.92575915 143.08239632 -59.171875 131.23046875 C-61.171875 128.23046875 -61.171875 128.23046875 -60.859375 125.60546875 C-60.171875 123.23046875 -60.171875 123.23046875 -59.171875 122.23046875 C-55.58322444 121.65268959 -54.31065853 122.13620772 -51.26171875 124.20703125 C-50.20416096 125.08171444 -49.15369315 125.96502013 -48.109375 126.85546875 C-36.99083436 135.84712225 -24.52686739 141.38605743 -10.171875 142.23046875 C-9.50027344 142.28332031 -8.82867187 142.33617187 -8.13671875 142.390625 C7.85250866 143.07801235 23.48584121 137.11366374 35.828125 127.23046875 C36.37339844 126.66585937 36.91867188 126.10125 37.48046875 125.51953125 C38.828125 124.23046875 38.828125 124.23046875 40.828125 124.23046875 C41.10269531 123.62976563 41.37726563 123.0290625 41.66015625 122.41015625 C42.828125 120.23046875 42.828125 120.23046875 45.515625 117.35546875 C56.35010342 104.98079487 60.68443229 87.3383031 59.828125 71.23046875 C58.39325338 54.482459 50.81262804 38.54698281 38.640625 26.91796875 C28.32228756 18.45943563 17.750836 14.0027643 4.828125 11.23046875 C3.38759766 10.91142578 3.38759766 10.91142578 1.91796875 10.5859375 C1.10457031 10.40675781 0.29117188 10.22757813 -0.546875 10.04296875 C-4.171875 9.23046875 -4.171875 9.23046875 -5.171875 8.23046875 C-5.359375 5.29296875 -5.359375 5.29296875 -5.171875 2.23046875 C-3.171875 0.23046875 -3.171875 0.23046875 0 0 Z " fill="#92DC6C" transform="translate(96.171875,13.76953125)"/>
<path d="M0 0 C14.42903597 0.14449678 27.37519458 8.38640832 37.6875 17.8125 C49.84922165 30.4051488 54.32802245 46.50721797 54.16064453 63.62084961 C53.91223238 71.01211826 52.67511408 77.50373687 49.6875 84.3125 C49.28660156 85.23933594 48.88570312 86.16617188 48.47265625 87.12109375 C41.20644875 101.96943081 28.43727056 112.78244033 13.0078125 118.30859375 C6.38986345 120.30955011 -0.50132924 122.29520382 -7.3125 120.3125 C-7.9725 119.6525 -8.6325 118.9925 -9.3125 118.3125 C-8.75694444 113.75694444 -8.75694444 113.75694444 -7.3125 112.3125 C-5.54173053 111.98153475 -3.76972712 111.65597086 -1.99243164 111.36206055 C8.31452257 109.65019885 16.04416276 106.72657682 24.64453125 100.6796875 C26.6875 99.3125 26.6875 99.3125 28.82421875 98.3828125 C31.19789189 97.01931891 31.58654005 95.78742216 32.6875 93.3125 C33.79657268 91.78001287 34.9231015 90.26007618 36.0625 88.75 C43.83107437 77.79307323 46.04613611 65.34646391 44.26171875 52.16796875 C41.50017819 38.15696234 34.68007605 26.37363007 23.0625 18.125 C14.50960889 12.64563853 5.50769692 10.40532885 -4.3125 8.3125 C-5.3125 7.3125 -5.3125 7.3125 -5.4375 4.3125 C-5.24949032 -0.1997324 -4.14863708 0.12571628 0 0 Z " fill="#94DA72" transform="translate(96.3125,29.6875)"/>
<path d="M0 0 C2 3 2 3 3 6.625 C3.33 7.73875 3.66 8.8525 4 10 C4.66 10.33 5.32 10.66 6 11 C6.91206263 35.73443704 6.91206263 35.73443704 2 45 C0.515 45.495 0.515 45.495 -1 46 C-1.309375 46.825 -1.61875 47.65 -1.9375 48.5 C-3 51 -3 51 -4.9375 51.8125 C-7 52 -7 52 -10 52 C-9.67 51.01 -9.34 50.02 -9 49 C-8.34 49 -7.68 49 -7 49 C-6.731875 47.824375 -6.46375 46.64875 -6.1875 45.4375 C-5.55517806 42.66501148 -4.78320476 40.58923006 -3.44140625 38.046875 C-1.04781885 32.58931989 -1.6464402 26.65391976 -1.75 20.8125 C-1.75515625 19.63751953 -1.7603125 18.46253906 -1.765625 17.25195312 C-1.69272455 11.48259972 -1.69272455 11.48259972 -2.57519531 5.82299805 C-3 4 -3 4 -2 1 C-1.34 0.67 -0.68 0.34 0 0 Z " fill="#90DC69" transform="translate(144,69)"/>
<path d="M0 0 C5.20040035 4.4401079 7.87393579 12.6120386 8.8125 19.25 C8.874375 20.1575 8.93625 21.065 9 22 C8.34 22.33 7.68 22.66 7 23 C5.515 18.05 5.515 18.05 4 13 C3.34 13 2.68 13 2 13 C1.92572162 16.34252724 1.93453047 18.8035914 3 22 C3.2863059 26.05764567 3.27774265 30.12088959 3.3125 34.1875 C3.34150391 35.29931641 3.37050781 36.41113281 3.40039062 37.55664062 C3.45464525 44.60556897 2.63263582 48.95485031 -1 55 C-1.5259375 56.6396875 -1.5259375 56.6396875 -2.0625 58.3125 C-3.0010872 61.00311663 -3.82365558 62.21935456 -6 64 C-3.0957107 63.89207179 -3.0957107 63.89207179 0 63 C1.91744593 60.55690423 1.91744593 60.55690423 3 58 C3.66 58.33 4.32 58.66 5 59 C0.88356825 66.58714872 -4.03798211 72.77300354 -10 79 C-10.33 78.01 -10.66 77.02 -11 76 C-9.1875 73.3125 -9.1875 73.3125 -7 71 C-6.34 71 -5.68 71 -5 71 C-5.33 69.68 -5.66 68.36 -6 67 C-7.93618141 67.19755057 -7.93618141 67.19755057 -10 68 C-11.30614256 69.81948382 -11.30614256 69.81948382 -12.3125 72 C-13.5625 74.1875 -13.5625 74.1875 -15 76 C-18.8125 77 -18.8125 77 -22 77 C-17.48746518 72.2367688 -17.48746518 72.2367688 -14.8125 70.9375 C-12.41982865 69.69991137 -12.18397099 68.40164934 -11 66 C-9.89092732 64.46751287 -8.7643985 62.94757618 -7.625 61.4375 C0.0962889 50.54726544 2.58982305 37.83118518 0.46875 24.71484375 C-0.95717306 18.08895127 -2.92434694 12.04201895 -6 6 C-5.195625 5.566875 -4.39125 5.13375 -3.5625 4.6875 C-0.72153646 3.19525998 -0.72153646 3.19525998 0 0 Z " fill="#9AD97B" transform="translate(140,57)"/>
<path d="M0 0 C2 1 2 1 3 2 C3.680625 2.103125 4.36125 2.20625 5.0625 2.3125 C9.0470717 3.24505933 12.40570437 5.08244774 16 7 C16 7.66 16 8.32 16 9 C16.66 8.67 17.32 8.34 18 8 C19.62165752 7.87851695 21.24884327 7.82456348 22.875 7.8125 C24.17050781 7.79123047 24.17050781 7.79123047 25.4921875 7.76953125 C28.1241288 8.01140748 29.73980544 8.67016459 32 10 C31.67 11.32 31.34 12.64 31 14 C18.16827423 17.56756501 7.17319739 11.9321615 -4 6 C-3.67 4.35 -3.34 2.7 -3 1 C-2.01 0.67 -1.02 0.34 0 0 Z " fill="#92DC6B" transform="translate(55,149)"/>
<path d="M0 0 C0 0.66 0 1.32 0 2 C-0.66 2 -1.32 2 -2 2 C-2 2.99 -2 3.98 -2 5 C-0.576875 4.938125 -0.576875 4.938125 0.875 4.875 C4 5 4 5 6 7 C-2.6701326 11.87445243 -12.85904553 16.51370689 -23 16 C-22.375 14.0625 -22.375 14.0625 -21 12 C-18.01155209 11.20308056 -15.460092 10.97809086 -12.375 11.125 C-9.48492344 11.19402969 -9.48492344 11.19402969 -6 8 C-10.29 7.67 -14.58 7.34 -19 7 C-15.49076033 5.24538017 -12.03075803 3.7861391 -8.375 2.375 C-7.22773437 1.92898437 -6.08046875 1.48296875 -4.8984375 1.0234375 C-2 0 -2 0 0 0 Z " fill="#94DC6D" transform="translate(127,163)"/>
<path d="M0 0 C2.5 0.1875 2.5 0.1875 5 1 C6.97274935 3.95912402 7.30574377 4.94122353 7.6328125 8.30859375 C7.71660156 9.13810547 7.80039063 9.96761719 7.88671875 10.82226562 C7.96535156 11.68529297 8.04398438 12.54832031 8.125 13.4375 C8.21136719 14.29666016 8.29773437 15.15582031 8.38671875 16.04101562 C8.74714257 19.72820847 9 23.28838874 9 27 C8.34 27 7.68 27 7 27 C7 26.34 7 25.68 7 25 C6.34 24.67 5.68 24.34 5 24 C5 23.34 5 22.68 5 22 C4.34 21.01 3.68 20.02 3 19 C2.67 19 2.34 19 2 19 C1.67 16.03 1.34 13.06 1 10 C0.01 10 -0.98 10 -2 10 C-2.1953125 3.9453125 -2.1953125 3.9453125 -2 2 C-1.34 1.34 -0.68 0.68 0 0 Z " fill="#91DD6A" transform="translate(2,89)"/>
<path d="M0 0 C1.32 0.33 2.64 0.66 4 1 C4 5 4 5 1.625 7.4375 C0.75875 8.283125 -0.1075 9.12875 -1 10 C-1.309375 10.845625 -1.61875 11.69125 -1.9375 12.5625 C-3.49925498 16.14534967 -5.55483884 17.27741942 -9 19 C-12.375 18.75 -12.375 18.75 -15 18 C-15 14.73343924 -14.88441939 13.62180089 -13 11 C-11.29837608 10.34552926 -9.59598091 9.69284826 -7.88671875 9.05859375 C-4.2713257 7.03008129 -2.21387627 3.41407293 0 0 Z " fill="#8EDC68" transform="translate(131,123)"/>
<path d="M0 0 C2.475 0.99 2.475 0.99 5 2 C5 2.66 5 3.32 5 4 C5.66 3.67 6.32 3.34 7 3 C8.62165752 2.87851695 10.24884327 2.82456348 11.875 2.8125 C13.17050781 2.79123047 13.17050781 2.79123047 14.4921875 2.76953125 C17.1241288 3.01140748 18.73980544 3.67016459 21 5 C20.67 6.32 20.34 7.64 20 9 C16.60907078 10.04336284 13.5382677 10.22584687 10 10 C9.01 9.34 8.02 8.68 7 8 C5.0103005 7.60986284 3.00980131 7.26797351 1 7 C0.67 6.01 0.34 5.02 0 4 C-0.66 3.34 -1.32 2.68 -2 2 C-1.34 1.34 -0.68 0.68 0 0 Z " fill="#8EDC64" transform="translate(66,154)"/>
<path d="M0 0 C5.96564796 0.50771472 10.63809899 2.38592128 16 5 C14 7 14 7 11 8 C11 9.32 11 10.64 11 12 C12.98 11.67 14.96 11.34 17 11 C17.66 12.98 18.32 14.96 19 17 C15.56879565 15.9706387 12.45685908 14.75461901 9.3125 13.0625 C4.44851997 10.54078608 -0.69883341 9.28631248 -6 8 C-6 7.34 -6 6.68 -6 6 C-5.38125 5.87625 -4.7625 5.7525 -4.125 5.625 C-1.80879168 5.12802644 -1.80879168 5.12802644 0 3 C0.33 3.99 0.66 4.98 1 6 C0.34 6 -0.32 6 -1 6 C-1 6.66 -1 7.32 -1 8 C4.445 7.01 4.445 7.01 10 6 C10 5.34 10 4.68 10 4 C9.2575 4.04125 8.515 4.0825 7.75 4.125 C4.88051956 3.99456907 3.39424853 3.53915977 1 2 C0.67 1.34 0.34 0.68 0 0 Z " fill="#98DA76" transform="translate(114,3)"/>
<path d="M0 0 C0.99 0.33 1.98 0.66 3 1 C2.75185235 6.21110062 1.07924534 8.44249218 -2.52734375 11.8984375 C-4 13 -4 13 -6 13 C-6 14.32 -6 15.64 -6 17 C-7.65 17.66 -9.3 18.32 -11 19 C-12.32 17.68 -13.64 16.36 -15 15 C-14.67 14.34 -14.34 13.68 -14 13 C-13.34 13 -12.68 13 -12 13 C-11.67 12.01 -11.34 11.02 -11 10 C-7.92677052 7.04059383 -5.17847455 6.47482665 -1 6 C-1.020625 5.195625 -1.04125 4.39125 -1.0625 3.5625 C-1 1 -1 1 0 0 Z " fill="#8CDD63" transform="translate(149,127)"/>
<path d="M0 0 C2.391785 2.92329277 3.79639611 5.63523282 5.0625 9.1875 C5.38347656 10.06792969 5.70445312 10.94835937 6.03515625 11.85546875 C8.46838576 19.78562971 9.34001548 27.07633122 9.3125 35.375 C9.32861328 36.33921875 9.34472656 37.3034375 9.36132812 38.296875 C9.36600781 45.27897158 8.14322265 51.365173 6 58 C5.34 58 4.68 58 4 58 C4.24556641 57.18789062 4.24556641 57.18789062 4.49609375 56.359375 C5.08590587 53.59777407 5.09609308 51.07181861 5.0625 48.25 C5.04896484 46.77273437 5.04896484 46.77273437 5.03515625 45.265625 C5.02355469 44.51796875 5.01195312 43.7703125 5 43 C5.99 42.505 5.99 42.505 7 42 C7.054138 39.75026553 7.09285491 37.50015617 7.125 35.25 C7.14820313 33.99703125 7.17140625 32.7440625 7.1953125 31.453125 C7.011337 28.20043809 6.5329134 26.7566678 5 24 C5.33 23.34 5.66 22.68 6 22 C5.1370263 18.60974617 4.10596713 15.31790138 3 12 C2.34 11.67 1.68 11.34 1 11 C1.33 9.35 1.66 7.7 2 6 C1.01 5.67 0.02 5.34 -1 5 C-0.67 3.35 -0.34 1.7 0 0 Z " fill="#98D77A" transform="translate(157,55)"/>
<path d="M0 0 C2.7839183 1.39195915 2.97898997 3.15575779 4 6 C2.02 6.33 0.04 6.66 -2 7 C-2 7.33 -2 7.66 -2 8 C-5.96 8 -9.92 8 -14 8 C-14.33 6.68 -14.66 5.36 -15 4 C-11.84274244 1.89516163 -10.60149717 1.69111983 -6.9375 1.4375 C-3.33239957 1.22366554 -3.33239957 1.22366554 0 0 Z " fill="#8DDD63" transform="translate(104,141)"/>
<path d="M0 0 C0.99 0.33 1.98 0.66 3 1 C3.87890625 3.2578125 3.87890625 3.2578125 4.5625 6.125 C4.81 7.12402344 5.0575 8.12304688 5.3125 9.15234375 C5.539375 10.09207031 5.76625 11.03179687 6 12 C6.350625 13.216875 6.70125 14.43375 7.0625 15.6875 C7.371875 16.780625 7.68125 17.87375 8 19 C8.35449219 20.14984375 8.70898438 21.2996875 9.07421875 22.484375 C10.40445966 27.85401349 10.05442602 33.07929174 9.75 38.5625 C9.71003906 39.56474609 9.67007813 40.56699219 9.62890625 41.59960938 C9.3637794 47.04187538 8.76584371 51.8399731 7 57 C6.34 57 5.68 57 5 57 C5.15597656 55.98164062 5.31195313 54.96328125 5.47265625 53.9140625 C7.80896438 37.48137424 6.92560164 22.85486113 2 7 C1.32320215 4.66944631 0.66161293 2.33492994 0 0 Z " fill="#9BD47D" transform="translate(164,55)"/>
<path d="M0 0 C6.01678658 -0.32105383 10.83916848 -0.57288336 16 3 C16.33 3.99 16.66 4.98 17 6 C16.01 6 15.02 6 14 6 C14 6.66 14 7.32 14 8 C9.23649415 7.28547412 4.65798604 6.20465156 0 5 C0 3.35 0 1.7 0 0 Z " fill="#8EDD64" transform="translate(93,31)"/>
<path d="M0 0 C1.5 1.375 1.5 1.375 3 3 C3 3.66 3 4.32 3 5 C3.598125 5.0825 4.19625 5.165 4.8125 5.25 C7.6788626 6.23275289 8.56592275 7.35827876 10 10 C9.73495121 13.00388632 9.16695725 13.83304275 7 16 C4.875 15.625 4.875 15.625 3 15 C3 13.35 3 11.7 3 10 C2.34 10 1.68 10 1 10 C-3 4.58823529 -3 4.58823529 -3 2 C-2.01 2 -1.02 2 0 2 C0 1.34 0 0.68 0 0 Z " fill="#8EDC64" transform="translate(130,47)"/>
<path d="M0 0 C1.75570312 0.01353516 1.75570312 0.01353516 3.546875 0.02734375 C4.43890625 0.03894531 5.3309375 0.05054688 6.25 0.0625 C6.25 1.0525 6.25 2.0425 6.25 3.0625 C2.8941325 5.299745 0.14059958 5.05765806 -3.79296875 4.93359375 C-6.62697526 5.12026484 -8.42631315 6.51337543 -10.75 8.0625 C-12.07 8.0625 -13.39 8.0625 -14.75 8.0625 C-14.42 7.0725 -14.09 6.0825 -13.75 5.0625 C-13.75 4.4025 -13.75 3.7425 -13.75 3.0625 C-12.76 3.0625 -11.77 3.0625 -10.75 3.0625 C-10.75 2.4025 -10.75 1.7425 -10.75 1.0625 C-7.14006828 -0.07230527 -3.7657673 -0.03765767 0 0 Z " fill="#8CDD63" transform="translate(114.75,169.9375)"/>
<path d="M0 0 C0.66 0 1.32 0 2 0 C2.33 0.66 2.66 1.32 3 2 C3.66 1.67 4.32 1.34 5 1 C5 2.98 5 4.96 5 7 C5.99 7.33 6.98 7.66 8 8 C8.33 9.65 8.66 11.3 9 13 C8.01 13 7.02 13 6 13 C6 13.66 6 14.32 6 15 C5.01 15.33 4.02 15.66 3 16 C3 14.35 3 12.7 3 11 C2.34 11 1.68 11 1 11 C-0.59555725 7.50971852 -1.32049797 4.84597567 -1 1 C-0.67 0.67 -0.34 0.34 0 0 Z " fill="#8DDD62" transform="translate(8,118)"/>
<path d="M0 0 C1.32 0 2.64 0 4 0 C4 0.66 4 1.32 4 2 C4.66 2 5.32 2 6 2 C6.33 2.99 6.66 3.98 7 5 C6.01 5.33 5.02 5.66 4 6 C4.33 6.66 4.66 7.32 5 8 C5.18126216 9.49613214 5.32100381 10.99743686 5.4375 12.5 C5.75330899 16.20406476 6.35927078 19.64336636 7.25 23.25 C8.06169105 26.97907338 8.05013493 27.8678261 6.625 31.625 C6.08875 32.40875 5.5525 33.1925 5 34 C4.13484972 31.04909984 3.94502454 28.56457712 4.0625 25.5 C4.15228353 16.80382352 2.25093412 8.36061243 0 0 Z " fill="#9AD57E" transform="translate(152,65)"/>
<path d="M0 0 C3.86463725 0.41406828 6.12722 2.52621722 9 5 C1.30812731 7.93218551 -6.65209048 10.69146841 -15 10 C-17.34375 8.50390625 -17.34375 8.50390625 -19 7 C-18.67 5.35 -18.34 3.7 -18 2 C-17.01 2 -16.02 2 -15 2 C-15.33 3.65 -15.66 5.3 -16 7 C-12.37 7 -8.74 7 -5 7 C-5 6.67 -5 6.34 -5 6 C-3.02 5.67 -1.04 5.34 1 5 C1 4.01 1 3.02 1 2 C0.34 1.67 -0.32 1.34 -1 1 C-0.67 0.67 -0.34 0.34 0 0 Z " fill="#9CDE78" transform="translate(106,141)"/>
<path d="M0 0 C1.32 0.33 2.64 0.66 4 1 C4 5 4 5 1.5625 7.5625 C0.716875 8.366875 -0.12875 9.17125 -1 10 C-1.33 10.99 -1.66 11.98 -2 13 C-3.32 13 -4.64 13 -6 13 C-6.35281338 8.8029908 -5.64185432 6.93477927 -3 3.6875 C-2.443125 2.99011719 -1.88625 2.29273437 -1.3125 1.57421875 C-0.6628125 0.79498047 -0.6628125 0.79498047 0 0 Z " fill="#8EDC64" transform="translate(131,123)"/>
<path d="M0 0 C0.33 0.66 0.66 1.32 1 2 C-0.9375 2.5625 -0.9375 2.5625 -3 3 C-3.33 2.67 -3.66 2.34 -4 2 C-4.33 2.66 -4.66 3.32 -5 4 C-4.34 4 -3.68 4 -3 4 C-3 4.66 -3 5.32 -3 6 C-10.75 6.125 -10.75 6.125 -13 5 C-13 4.01 -13 3.02 -13 2 C-12.34 2 -11.68 2 -11 2 C-11 1.34 -11 0.68 -11 0 C-6.58108537 -1.84977822 -4.25232356 -2.42989918 0 0 Z " fill="#8EDC66" transform="translate(138,163)"/>
<path d="M0 0 C0.99 0.33 1.98 0.66 3 1 C3.33 2.65 3.66 4.3 4 6 C5.32 5.67 6.64 5.34 8 5 C8.33 5.66 8.66 6.32 9 7 C9.99 7 10.98 7 12 7 C12 7.66 12 8.32 12 9 C9.52755385 10.16754401 7.63362072 11.0186359 4.875 10.9375 C3 10 3 10 1.5 7.4375 C1.005 6.633125 0.51 5.82875 0 5 C-1.32 5 -2.64 5 -4 5 C-3 2 -3 2 0 0 Z " fill="#8EDC62" transform="translate(29,148)"/>
<path d="M0 0 C2.5 0.1875 2.5 0.1875 5 1 C7.29013653 4.4352048 7.17842973 5.985331 7 10 C6.01 10 5.02 10 4 10 C4 9.01 4 8.02 4 7 C3.01 7.33 2.02 7.66 1 8 C0.01 6.02 -0.98 4.04 -2 2 C-1.34 1.34 -0.68 0.68 0 0 Z " fill="#93D570" transform="translate(2,89)"/>
<path d="M0 0 C-2.72681111 0.84179395 -5.45601443 1.67363069 -8.1875 2.5 C-9.34088867 2.85771484 -9.34088867 2.85771484 -10.51757812 3.22265625 C-14.44356128 4.40213617 -17.85048821 5.3326262 -22 5 C-21.375 3.0625 -21.375 3.0625 -20 1 C-17.5 0.3125 -17.5 0.3125 -14 0 C-13.18273437 -0.10183594 -12.36546875 -0.20367187 -11.5234375 -0.30859375 C-7.34154807 -0.80820001 -4.0846155 -1.11457344 0 0 Z " fill="#A3DE82" transform="translate(126,174)"/>
<path d="M0 0 C0.66 0 1.32 0 2 0 C2 0.66 2 1.32 2 2 C1.01 2.495 1.01 2.495 0 3 C0.66 3.66 1.32 4.32 2 5 C2.33 5.66 2.66 6.32 3 7 C4.65 6.67 6.3 6.34 8 6 C4.07168569 10.17383395 -0.16479983 13.89394426 -5 17 C-5.66 17 -6.32 17 -7 17 C-7 16.34 -7 15.68 -7 15 C-6.01 15 -5.02 15 -4 15 C-4 14.34 -4 13.68 -4 13 C-3.360625 12.7525 -2.72125 12.505 -2.0625 12.25 C0.18741541 11.18437567 0.18741541 11.18437567 0.75 8.875 C0.8325 8.25625 0.915 7.6375 1 7 C0.34 7 -0.32 7 -1 7 C-1 6.34 -1 5.68 -1 5 C-2.32 5.33 -3.64 5.66 -5 6 C-3.38405168 3.95880212 -1.7143618 1.95927063 0 0 Z " fill="#9DDB7D" transform="translate(135,138)"/>
<path d="M0 0 C3 1 3 1 4.1875 3.0625 C4.455625 3.701875 4.72375 4.34125 5 5 C4.34 5.61875 3.68 6.2375 3 6.875 C0.7715451 8.75637427 0.7715451 8.75637427 1 11 C-0.32 11.33 -1.64 11.66 -3 12 C-2.67 8.7 -2.34 5.4 -2 2 C-1.34 2 -0.68 2 0 2 C0 1.34 0 0.68 0 0 Z " fill="#8CDD62" transform="translate(165,125)"/>
<path d="M0 0 C4.69663725 4.69663725 6.72390507 10.55518481 7.25390625 17.16796875 C7.25051265 19.79122093 7.18219166 22.38352532 7 25 C6.67 25 6.34 25 6 25 C5.04738513 20.23692563 4.91666643 15.8333472 5 11 C4.01 11 3.02 11 2 11 C2 10.34 2 9.68 2 9 C1.34 9 0.68 9 0 9 C0 6.03 0 3.06 0 0 Z " fill="#A3DE89" transform="translate(122,69)"/>
<path d="M0 0 C2.64 0 5.28 0 8 0 C8.6875 2.3125 8.6875 2.3125 9 5 C7.5625 6.8125 7.5625 6.8125 6 8 C4.68 7.34 3.36 6.68 2 6 C2 4.68 2 3.36 2 2 C1.34 2 0.68 2 0 2 C0 1.34 0 0.68 0 0 Z " fill="#8CDD64" transform="translate(114,21)"/>
<path d="M0 0 C0 0.66 0 1.32 0 2 C0.66 2 1.32 2 2 2 C1.67 3.65 1.34 5.3 1 7 C-0.98 7.66 -2.96 8.32 -5 9 C-5.66 8.34 -6.32 7.68 -7 7 C-6.34 7 -5.68 7 -5 7 C-4.87625 6.030625 -4.7525 5.06125 -4.625 4.0625 C-4.41875 3.051875 -4.2125 2.04125 -4 1 C-2 0 -2 0 0 0 Z " fill="#8DDD64" transform="translate(134,143)"/>
<path d="M0 0 C0 0.33 0 0.66 0 1 C-2.64 1 -5.28 1 -8 1 C-8 0.34 -8 -0.32 -8 -1 C-14.14851913 -1.19692766 -19.17402864 -1.1678033 -25 1 C-28.375 1.125 -28.375 1.125 -31 1 C-23.31258667 -6.68741333 -9.0299429 -2.52838401 0 0 Z " fill="#A2D488" transform="translate(106,54)"/>
<path d="M0 0 C1.98 0 3.96 0 6 0 C6 0.99 6 1.98 6 3 C5.34 3 4.68 3 4 3 C4.495 3.45375 4.99 3.9075 5.5 4.375 C7 6 7 6 7 8 C7.66 8 8.32 8 9 8 C8.67 8.99 8.34 9.98 8 11 C1.82238011 7.4937833 1.82238011 7.4937833 0 5 C-0.1875 2.3125 -0.1875 2.3125 0 0 Z " fill="#8FDC61" transform="translate(114,37)"/>
<path d="M0 0 C1.32 0.33 2.64 0.66 4 1 C4.79953138 4.28696233 5.09658936 5.71023192 4 9 C4.66 9 5.32 9 6 9 C6 9.66 6 10.32 6 11 C6.66 11.33 7.32 11.66 8 12 C6.35 12.33 4.7 12.66 3 13 C1.41744803 8.67435795 0.54855348 4.571279 0 0 Z " fill="#8DDC62" transform="translate(18,135)"/>
<path d="M0 0 C1.37478516 0.01740234 1.37478516 0.01740234 2.77734375 0.03515625 C3.69644531 0.04417969 4.61554688 0.05320312 5.5625 0.0625 C6.27277344 0.07410156 6.98304687 0.08570312 7.71484375 0.09765625 C7.71484375 0.42765625 7.71484375 0.75765625 7.71484375 1.09765625 C4.74484375 1.09765625 1.77484375 1.09765625 -1.28515625 1.09765625 C-1.28515625 2.74765625 -1.28515625 4.39765625 -1.28515625 6.09765625 C-0.58648437 6.21882813 0.1121875 6.34 0.83203125 6.46484375 C2.19714844 6.71621094 2.19714844 6.71621094 3.58984375 6.97265625 C4.49476562 7.13507812 5.3996875 7.2975 6.33203125 7.46484375 C8.71484375 8.09765625 8.71484375 8.09765625 10.71484375 10.09765625 C9.13074381 9.98277877 7.54755412 9.85531117 5.96484375 9.72265625 C4.64226562 9.61824219 4.64226562 9.61824219 3.29296875 9.51171875 C0.72417993 9.0991557 -1.0435664 8.38604668 -3.28515625 7.09765625 C-3.32769981 5.09810879 -3.32596408 3.09723989 -3.28515625 1.09765625 C-2.28515625 0.09765625 -2.28515625 0.09765625 0 0 Z " fill="#9FD484" transform="translate(94.28515625,29.90234375)"/>
<path d="M0 0 C0.33 0 0.66 0 1 0 C1.06058594 1.28777344 1.12117188 2.57554688 1.18359375 3.90234375 C1.26798247 5.58074159 1.3526313 7.25912636 1.4375 8.9375 C1.47681641 9.78763672 1.51613281 10.63777344 1.55664062 11.51367188 C1.59853516 12.32255859 1.64042969 13.13144531 1.68359375 13.96484375 C1.72025146 14.7137085 1.75690918 15.46257324 1.79467773 16.23413086 C1.81771063 18.02461326 1.81771063 18.02461326 3 19 C3.14115161 21.67058851 3.04247107 24.32432238 3 27 C-1.90481327 19.6427801 -1.6689384 10.84980339 -0.5 2.375 C-0.335 1.59125 -0.17 0.8075 0 0 Z " fill="#ABE891" transform="translate(52,79)"/>
<path d="M0 0 C4.81033104 2.54664585 8.32442148 4.99027798 12 9 C10.02 9.66 8.04 10.32 6 11 C3.51110752 7.43258745 1.45044271 4.10958767 0 0 Z " fill="#9CDC7C" transform="translate(139,14)"/>
<path d="M0 0 C1.2375 0.1546875 1.2375 0.1546875 2.5 0.3125 C4.6519437 3.54041555 4.70086443 4.59650809 4.5 8.3125 C3.84 8.3125 3.18 8.3125 2.5 8.3125 C1.84 7.6525 1.18 6.9925 0.5 6.3125 C-0.82 6.3125 -2.14 6.3125 -3.5 6.3125 C-4.125 4.4375 -4.125 4.4375 -4.5 2.3125 C-2.5 0.3125 -2.5 0.3125 0 0 Z " fill="#8DDC63" transform="translate(128.5,8.6875)"/>
<path d="M0 0 C2.97 0.495 2.97 0.495 6 1 C4.515 3.475 4.515 3.475 3 6 C2.01 5.67 1.02 5.34 0 5 C0 6.65 0 8.3 0 10 C-1.98 9.34 -3.96 8.68 -6 8 C-5.67 7.01 -5.34 6.02 -5 5 C-4.01 5 -3.02 5 -2 5 C-2 4.34 -2 3.68 -2 3 C-1.34 3 -0.68 3 0 3 C0 2.01 0 1.02 0 0 Z " fill="#8CDD60" transform="translate(159,137)"/>
<path d="M0 0 C2.97 0.99 5.94 1.98 9 3 C9 3.66 9 4.32 9 5 C5.12315913 6.19287411 2.08378077 7 -2 7 C-1.34 4.69 -0.68 2.38 0 0 Z " fill="#8CDD64" transform="translate(115,4)"/>
<path d="M0 0 C0.33 0.66 0.66 1.32 1 2 C-0.38639822 4.090169 -1.78344824 6.17173638 -3.1875 8.25 C-3.57486328 8.83652344 -3.96222656 9.42304688 -4.36132812 10.02734375 C-6.85590183 13.69704722 -9.34777636 16.3792214 -13 19 C-13 15 -13 15 -11.50390625 13.40234375 C-10.86324219 12.91894531 -10.22257813 12.43554688 -9.5625 11.9375 C-6.48666593 9.60758058 -6.48666593 9.60758058 -5 6 C-4.34 6 -3.68 6 -3 6 C-3 5.01 -3 4.02 -3 3 C-2.34 3 -1.68 3 -1 3 C-0.67 2.01 -0.34 1.02 0 0 Z " fill="#9DD880" transform="translate(156,125)"/>
<path d="M0 0 C2.17515859 3.26273789 3.31011941 6.30910713 4.625 10 C5.07101563 11.2375 5.51703125 12.475 5.9765625 13.75 C7 17 7 17 7 20 C3.96214597 17.97476398 2.41261906 16.36855314 1 13 C0.67 12.34 0.34 11.68 0 11 C-0.07033769 9.12620395 -0.0843022 7.24998898 -0.0625 5.375 C-0.05347656 4.37210937 -0.04445313 3.36921875 -0.03515625 2.3359375 C-0.02355469 1.56507812 -0.01195312 0.79421875 0 0 Z " fill="#9DDA80" transform="translate(10,108)"/>
<path d="M0 0 C2.5843218 2.5843218 3.10401163 4.89375577 4.1875 8.375 C4.55230469 9.51710938 4.91710937 10.65921875 5.29296875 11.8359375 C5.95860385 14.81474653 6.07938697 16.20871903 5 19 C4.67 18.01 4.34 17.02 4 16 C3.01 16 2.02 16 1 16 C1.33 12.7 1.66 9.4 2 6 C1.34 5.67 0.68 5.34 0 5 C0 3.35 0 1.7 0 0 Z " fill="#9BDB7E" transform="translate(173,55)"/>
<path d="M0 0 C0.66 0 1.32 0 2 0 C3.5078125 2.1171875 3.5078125 2.1171875 5.125 4.875 C5.66382813 5.77992187 6.20265625 6.68484375 6.7578125 7.6171875 C8 10 8 10 8 12 C5.5625 11.25 5.5625 11.25 3 10 C2.375 7.9375 2.375 7.9375 2 6 C1.01 5.67 0.02 5.34 -1 5 C-0.67 3.35 -0.34 1.7 0 0 Z " fill="#9BDB7B" transform="translate(149,43)"/>
<path d="M0 0 C1 2 1 2 0 6 C4.29 6.33 8.58 6.66 13 7 C13 7.66 13 8.32 13 9 C13.66 9.33 14.32 9.66 15 10 C12.89521396 9.88590318 10.79115423 9.75834639 8.6875 9.625 C7.51574219 9.55539062 6.34398438 9.48578125 5.13671875 9.4140625 C2 9 2 9 -1 7 C-1.25 3.9375 -1.25 3.9375 -1 1 C-0.67 0.67 -0.34 0.34 0 0 Z " fill="#9ED683" transform="translate(92,0)"/>
<path d="M0 0 C1.32 0 2.64 0 4 0 C4 0.66 4 1.32 4 2 C4.66 2 5.32 2 6 2 C6.33 2.99 6.66 3.98 7 5 C6.01 5.33 5.02 5.66 4 6 C4.33 7.65 4.66 9.3 5 11 C1.19015156 8.22920113 0.93159248 4.37131855 0 0 Z " fill="#96D970" transform="translate(152,65)"/>
<path d="M0 0 C0.99 0.33 1.98 0.66 3 1 C3 1.33 3 1.66 3 2 C4.65 2.33 6.3 2.66 8 3 C8 4.65 8 6.3 8 8 C6.02 8 4.04 8 2 8 C0.74335022 5.09399739 0 3.20395416 0 0 Z " fill="#8CDE63" transform="translate(141,38)"/>
<path d="M0 0 C4.00972202 3.67557852 6.45335415 7.18966896 9 12 C7 12 7 12 5.5625 10.625 C5.046875 10.08875 4.53125 9.5525 4 9 C3.01 8.34 2.02 7.68 1 7 C1 6.34 1 5.68 1 5 C0.01 4.67 -0.98 4.34 -2 4 C-1.34 2.68 -0.68 1.36 0 0 Z " fill="#9DDB7D" transform="translate(157,29)"/>
<path d="M0 0 C0.33 0 0.66 0 1 0 C1 2.31 1 4.62 1 7 C3.29629994 8.14814997 5.07698086 8.30769809 7.625 8.5625 C8.44226563 8.64628906 9.25953125 8.73007812 10.1015625 8.81640625 C10.72804688 8.87699219 11.35453125 8.93757813 12 9 C12 9.66 12 10.32 12 11 C10.41590006 10.88512252 8.83271037 10.75765492 7.25 10.625 C5.92742187 10.52058594 5.92742187 10.52058594 4.578125 10.4140625 C2.00933618 10.00149945 0.24158985 9.28839043 -2 8 C-2.125 5.125 -2.125 5.125 -2 2 C-1.34 1.34 -0.68 0.68 0 0 Z " fill="#A7D98E" transform="translate(93,14)"/>
<path d="M0 0 C4.10346546 0.54712873 5.80917623 2.58121045 8.8125 5.375 C7.8225 5.705 6.8325 6.035 5.8125 6.375 C4.45914105 5.40227325 3.12587396 4.4010734 1.8125 3.375 C0.8225 3.375 -0.1675 3.375 -1.1875 3.375 C-1.1875 5.355 -1.1875 7.335 -1.1875 9.375 C-2.75 8.1875 -2.75 8.1875 -4.1875 6.375 C-3.63978216 0.62396266 -3.63978216 0.62396266 0 0 Z " fill="#A2DB86" transform="translate(39.1875,135.625)"/>
<path d="M0 0 C0.66 0.33 1.32 0.66 2 1 C-1.75 4 -1.75 4 -4 4 C-4.20625 4.556875 -4.4125 5.11375 -4.625 5.6875 C-6.55000774 8.92501302 -9.03850902 10.68231141 -12 13 C-12.66 12.67 -13.32 12.34 -14 12 C-10.0679294 6.67267854 -5.61946506 3.4524818 0 0 Z " fill="#A9DD8F" transform="translate(72,55)"/>
<path d="M0 0 C3.96189783 4.23513217 5.43181728 8.547001 7 14 C6.34 14 5.68 14 5 14 C5 12.68 5 11.36 5 10 C3.824375 9.566875 3.824375 9.566875 2.625 9.125 C0 8 0 8 -2 6 C-1.34 4.02 -0.68 2.04 0 0 Z " fill="#99DD79" transform="translate(166,41)"/>
<path d="M0 0 C3.35595828 0.59927826 5.37801226 1.84622436 8 4 C7.01 5.485 7.01 5.485 6 7 C4.68 7 3.36 7 2 7 C2 6.34 2 5.68 2 5 C1.34 5 0.68 5 0 5 C-0.33 4.01 -0.66 3.02 -1 2 C-0.67 1.34 -0.34 0.68 0 0 Z " fill="#8BDE63" transform="translate(155,35)"/>
<path d="M0 0 C0.66 0.99 1.32 1.98 2 3 C1.375 5.625 1.375 5.625 0 8 C-1.875 8.6875 -1.875 8.6875 -4 9 C-5.3479743 9.63654342 -6.68596724 10.29605388 -8 11 C-6.63629701 8.00779732 -5.05091917 5.70973471 -2.875 3.25 C-2.33617187 2.63640625 -1.79734375 2.0228125 -1.2421875 1.390625 C-0.62730469 0.70226562 -0.62730469 0.70226562 0 0 Z " fill="#9DDB79" transform="translate(145,127)"/>
<path d="M0 0 C1.98 0.66 3.96 1.32 6 2 C6 2.99 6 3.98 6 5 C6.66 5 7.32 5 8 5 C8 6.32 8 7.64 8 9 C8.66 9 9.32 9 10 9 C10.33 10.98 10.66 12.96 11 15 C8.39369226 11.7681784 5.81620539 8.51371354 3.25 5.25 C2.63640625 4.47140625 2.0228125 3.6928125 1.390625 2.890625 C0 1 0 1 0 0 Z " fill="#9BD67F" transform="translate(137,42)"/>
<path d="M0 0 C1.33333333 2 2.66666667 4 4 6 C4.680625 6.309375 5.36125 6.61875 6.0625 6.9375 C8 8 8 8 8.75 10.125 C8.87375 11.053125 8.87375 11.053125 9 12 C4.30834891 9.02480663 0.15296809 5.68606635 -4 2 C-2.68 1.34 -1.36 0.68 0 0 Z " fill="#A1DD86" transform="translate(29,152)"/>
<path d="M0 0 C0.66 0.33 1.32 0.66 2 1 C1.67 2.65 1.34 4.3 1 6 C5.29 6.33 9.58 6.66 14 7 C14 7.33 14 7.66 14 8 C12.08591243 8.24979445 10.16848389 8.47408014 8.25 8.6875 C7.18265625 8.81511719 6.1153125 8.94273437 5.015625 9.07421875 C1.59442134 8.99001814 0.44579177 8.30925485 -2 6 C-1.125 1.125 -1.125 1.125 0 0 Z " fill="#A5DC90" transform="translate(89,142)"/>
<path d="M0 0 C0.66 0 1.32 0 2 0 C3.125 2.8125 3.125 2.8125 4 6 C3.01 7.485 3.01 7.485 2 9 C-1.125 9.1875 -1.125 9.1875 -4 9 C-3.67 8.01 -3.34 7.02 -3 6 C-2.34 6 -1.68 6 -1 6 C-0.67 4.02 -0.34 2.04 0 0 Z " fill="#8CDC61" transform="translate(138,112)"/>
<path d="M0 0 C0.66 0.33 1.32 0.66 2 1 C2 2.65 2 4.3 2 6 C1.34 6 0.68 6 0 6 C-0.33 8.97 -0.66 11.94 -1 15 C-1.66 15 -2.32 15 -3 15 C-3 15.66 -3 16.32 -3 17 C-3.66 17 -4.32 17 -5 17 C-4.80664062 16.443125 -4.61328125 15.88625 -4.4140625 15.3125 C-2.68625575 10.24882873 -1.2306933 5.20677935 0 0 Z " fill="#9FDB84" transform="translate(155,102)"/>
<path d="M0 0 C1.5 1.375 1.5 1.375 3 3 C3 3.66 3 4.32 3 5 C2.01 5 1.02 5 0 5 C-0.433125 6.2065625 -0.433125 6.2065625 -0.875 7.4375 C-2 10 -2 10 -4 11 C-4.66 9.35 -5.32 7.7 -6 6 C-5.195625 5.566875 -4.39125 5.13375 -3.5625 4.6875 C-0.72153646 3.19525998 -0.72153646 3.19525998 0 0 Z " fill="#9BDE7E" transform="translate(140,57)"/>
<path d="M0 0 C0.66 0 1.32 0 2 0 C2.99 1.98 3.98 3.96 5 6 C3.02 6.66 1.04 7.32 -1 8 C-1.66 7.34 -2.32 6.68 -3 6 C-2.01 4.02 -1.02 2.04 0 0 Z " fill="#8DDB65" transform="translate(134,29)"/>
<path d="M0 0 C0.66 0.33 1.32 0.66 2 1 C-2.65201794 9.43497758 -2.65201794 9.43497758 -5.95703125 10.8203125 C-7.875 11.0625 -7.875 11.0625 -11 11 C-6.48746518 6.2367688 -6.48746518 6.2367688 -3.8125 4.9375 C-1.47139069 3.72658139 -0.95928874 2.39822186 0 0 Z " fill="#9FDF84" transform="translate(129,123)"/>
<path d="M0 0 C-2.69277589 3.32637022 -6.03724749 4.58473125 -10 6 C-10.99 5.67 -11.98 5.34 -13 5 C-11.68 4.67 -10.36 4.34 -9 4 C-9 3.34 -9 2.68 -9 2 C-5.86501708 0.14223235 -3.62528568 -0.20140476 0 0 Z " fill="#A4DE7F" transform="translate(113,121)"/>
<path d="M0 0 C0.99 0.66 1.98 1.32 3 2 C2.34 3.65 1.68 5.3 1 7 C-0.32 7 -1.64 7 -3 7 C-3.33 5.35 -3.66 3.7 -4 2 C-2.68 1.34 -1.36 0.68 0 0 Z " fill="#8CDD64" transform="translate(102,156)"/>
<path d="M0 0 C0.66 0.33 1.32 0.66 2 1 C2 1.66 2 2.32 2 3 C2.61875 3.268125 3.2375 3.53625 3.875 3.8125 C6 5 6 5 8 8 C6.824375 7.9690625 6.824375 7.9690625 5.625 7.9375 C3.01885039 7.81315937 3.01885039 7.81315937 1 9 C1 8.34 1 7.68 1 7 C0.34 6.67 -0.32 6.34 -1 6 C-0.01 5.67 0.98 5.34 2 5 C1.34 3.35 0.68 1.7 0 0 Z " fill="#9CDB7C" transform="translate(136,29)"/>
<path d="M0 0 C0.78375 0.04125 1.5675 0.0825 2.375 0.125 C2.375 0.785 2.375 1.445 2.375 2.125 C3.695 2.455 5.015 2.785 6.375 3.125 C4.065 3.785 1.755 4.445 -0.625 5.125 C-0.625 4.465 -0.625 3.805 -0.625 3.125 C-1.945 2.795 -3.265 2.465 -4.625 2.125 C-2.625 0.125 -2.625 0.125 0 0 Z " fill="#8CDE5F" transform="translate(105.625,3.875)"/>
<path d="M0 0 C1.98 0 3.96 0 6 0 C5.49396008 2.16874252 5.00016187 3.99967627 4 6 C3.01 6 2.02 6 1 6 C0.67 4.02 0.34 2.04 0 0 Z " fill="#8EDB64" transform="translate(47,163)"/>
<path d="M0 0 C1.77230751 0.7883609 3.54279534 1.58081347 5.3125 2.375 C6.29863281 2.81585938 7.28476562 3.25671875 8.30078125 3.7109375 C11 5 11 5 14 7 C13.01 7.33 12.02 7.66 11 8 C10.21625 7.525625 9.4325 7.05125 8.625 6.5625 C5.75303959 4.85299976 4.27160958 4.71957632 1 5 C0.67 3.35 0.34 1.7 0 0 Z " fill="#9FD885" transform="translate(56,147)"/>
<path d="M0 0 C1.98 0 3.96 0 6 0 C6.33 2.97 6.66 5.94 7 9 C4.03595495 6.19195732 1.55500981 3.81684226 0 0 Z " fill="#9ADA79" transform="translate(14,139)"/>
<path d="M0 0 C2.62386487 3.06117568 3 3.73173127 3 8 C3.99 7.67 4.98 7.34 6 7 C5.67 8.98 5.34 10.96 5 13 C1.82781157 9.37464179 0.57097403 5.48849722 -1 1 C-0.67 0.67 -0.34 0.34 0 0 Z " fill="#AAE18B" transform="translate(6,121)"/>
<path d="M0 0 C5.27749285 0.53851968 9.25645564 1.77343836 14 4 C12.02 4.99 12.02 4.99 10 6 C10 5.34 10 4.68 10 4 C9.2575 4.04125 8.515 4.0825 7.75 4.125 C4.88051956 3.99456907 3.39424853 3.53915977 1 2 C0.67 1.34 0.34 0.68 0 0 Z " fill="#A3E088" transform="translate(114,3)"/>
<path d="M0 0 C-5.39068413 3.59378942 -8.53673535 4.45356243 -15 4 C-12.18438333 2.52790818 -9.38026161 1.34273182 -6.375 0.3125 C-5.59898438 0.04050781 -4.82296875 -0.23148438 -4.0234375 -0.51171875 C-2 -1 -2 -1 0 0 Z " fill="#9DD47F" transform="translate(123,166)"/>
<path d="M0 0 C0.61875 0.66 1.2375 1.32 1.875 2 C3.75637427 4.2284549 3.75637427 4.2284549 6 4 C6.33 5.65 6.66 7.3 7 9 C6.34 8.67 5.68 8.34 5 8 C5 7.34 5 6.68 5 6 C3.35 6.33 1.7 6.66 0 7 C0 4.69 0 2.38 0 0 Z " fill="#89D85F" transform="translate(0,92)"/>
<path d="M0 0 C7.66742597 5.96583144 7.66742597 5.96583144 9 11 C8.01 10.34 7.02 9.68 6 9 C6 8.34 6 7.68 6 7 C5.38125 6.95875 4.7625 6.9175 4.125 6.875 C3.42375 6.58625 2.7225 6.2975 2 6 C0.75 2.9375 0.75 2.9375 0 0 Z " fill="#A2DA80" transform="translate(131,46)"/>
<path d="M0 0 C3.59391114 1.33488128 6.75490696 2.96022723 10 5 C9.67 6.32 9.34 7.64 9 9 C7.49704815 7.69088122 5.99770689 6.37761608 4.5 5.0625 C3.6646875 4.33160156 2.829375 3.60070312 1.96875 2.84765625 C1.3190625 2.23792969 0.669375 1.62820312 0 1 C0 0.67 0 0.34 0 0 Z " fill="#96D576" transform="translate(138,23)"/>
<path d="M0 0 C2.375 -0.125 2.375 -0.125 5 0 C5.66 0.66 6.32 1.32 7 2 C9.06874034 2.6425235 9.06874034 2.6425235 11 3 C10.67 3.66 10.34 4.32 10 5 C6.05140217 4.4359146 3.29120954 3.2568294 0 1 C0 0.67 0 0.34 0 0 Z " fill="#9ADA7D" transform="translate(51,154)"/>
<path d="M0 0 C0.99 0.33 1.98 0.66 3 1 C3 1.66 3 2.32 3 3 C3.99 3 4.98 3 6 3 C6.33 4.98 6.66 6.96 7 9 C6.01 9.495 6.01 9.495 5 10 C3.35 6.7 1.7 3.4 0 0 Z " fill="#98D87F" transform="translate(158,45)"/>
<path d="M0 0 C2.97 0.33 5.94 0.66 9 1 C9 1.99 9 2.98 9 4 C4.53159589 3.50351065 3.31012244 3.31012244 0 0 Z " fill="#A2DE86" transform="translate(71,123)"/>
<path d="M0 0 C2.31 0.66 4.62 1.32 7 2 C7 2.66 7 3.32 7 4 C7.66 4.33 8.32 4.66 9 5 C8.67 5.66 8.34 6.32 8 7 C4.2047869 5.50902342 2.38957269 3.24299151 0 0 Z " fill="#A0DC7D" transform="translate(61,115)"/>
<path d="M0 0 C2.475 0.99 2.475 0.99 5 2 C4.34 3.65 3.68 5.3 3 7 C2.34 6.67 1.68 6.34 1 6 C0.375 2.9375 0.375 2.9375 0 0 Z " fill="#99DD7A" transform="translate(3,115)"/>
<path d="M0 0 C2.475 0.495 2.475 0.495 5 1 C5.33 3.64 5.66 6.28 6 9 C2.91910327 6.22719294 1.31224548 3.93673644 0 0 Z " fill="#9DD97E" transform="translate(55,106)"/>
<path d="M0 0 C1.32 0 2.64 0 4 0 C3.6875 1.875 3.6875 1.875 3 4 C2.01 4.66 1.02 5.32 0 6 C-0.99 5.67 -1.98 5.34 -3 5 C-1.75 2.5 -1.75 2.5 0 0 Z " fill="#8FDB67" transform="translate(140,62)"/>
<path d="M0 0 C2.906521 1.3029232 4.80835408 2.70873381 7 5 C7.66 5.33 8.32 5.66 9 6 C8.34 7.32 7.68 8.64 7 10 C5.83043409 8.52312468 4.66441854 7.04343707 3.5 5.5625 C2.8503125 4.73878906 2.200625 3.91507813 1.53125 3.06640625 C0 1 0 1 0 0 Z " fill="#9DDA81" transform="translate(125,51)"/>
<path d="M0 0 C2.97 0.99 5.94 1.98 9 3 C9 3.99 9 4.98 9 6 C5.06326356 4.68775452 2.77280706 3.08089673 0 0 Z " fill="#A0DD84" transform="translate(42,148)"/>
<path d="M0 0 C1.09658936 3.28976808 0.79953138 4.71303767 0 8 C-0.66 8 -1.32 8 -2 8 C-2.6875 5.6875 -2.6875 5.6875 -3 3 C-1.5625 1.1875 -1.5625 1.1875 0 0 Z " fill="#8DDD61" transform="translate(152,145)"/>
<path d="M0 0 C2.0625 1.75 2.0625 1.75 4 4 C3.75 6.25 3.75 6.25 3 8 C2.01 8 1.02 8 0 8 C-0.33 7.01 -0.66 6.02 -1 5 C-0.34 5 0.32 5 1 5 C0.67 3.35 0.34 1.7 0 0 Z " fill="#94D86F" transform="translate(22,136)"/>
<path d="M0 0 C-0.99 2.97 -1.98 5.94 -3 9 C-5 5 -5 5 -5 2 C-2 0 -2 0 0 0 Z " fill="#9EE080" transform="translate(175,121)"/>
<path d="M0 0 C0.33 0.66 0.66 1.32 1 2 C-0.98 2.66 -2.96 3.32 -5 4 C-5.66 2.68 -6.32 1.36 -7 0 C-4.30234372 -1.34882814 -2.84835666 -0.80338265 0 0 Z " fill="#93DF76" transform="translate(150,21)"/>
<path d="M0 0 C4.455 2.97 4.455 2.97 9 6 C8.34 6.66 7.68 7.32 7 8 C7 7.34 7 6.68 7 6 C6.01 6 5.02 6 4 6 C4 5.34 4 4.68 4 4 C2.68 3.67 1.36 3.34 0 3 C0 2.01 0 1.02 0 0 Z " fill="#A5DD88" transform="translate(120,37)"/>
<path d="M0 0 C3.96 1.98 3.96 1.98 8 4 C4 6 4 6 2 6 C1.34 4.02 0.68 2.04 0 0 Z " fill="#9DE27E" transform="translate(131,9)"/>
<path d="M0 0 C0.33 0.99 0.66 1.98 1 3 C1.99 3.33 2.98 3.66 4 4 C3.34 4 2.68 4 2 4 C1.67 4.99 1.34 5.98 1 7 C0.01 6.34 -0.98 5.68 -2 5 C-1.34 3.35 -0.68 1.7 0 0 Z " fill="#8DDA64" transform="translate(44,158)"/>
<path d="M0 0 C2.31 0.66 4.62 1.32 7 2 C7 2.33 7 2.66 7 3 C2.545 3.495 2.545 3.495 -2 4 C-1.34 2.68 -0.68 1.36 0 0 Z " fill="#8EDC63" transform="translate(108,158)"/>
<path d="M0 0 C-0.66 1.65 -1.32 3.3 -2 5 C-4.97 4.505 -4.97 4.505 -8 4 C-2.7826087 0 -2.7826087 0 0 0 Z " fill="#A2DD85" transform="translate(118,134)"/>
<path d="M0 0 C0.33 0 0.66 0 1 0 C1.33 1.98 1.66 3.96 2 6 C0.02 6.99 -1.96 7.98 -4 9 C-2.80100302 5.9168649 -1.52299523 2.93720508 0 0 Z " fill="#9CD97F" transform="translate(162,127)"/>
<path d="M0 0 C1.65 0 3.3 0 5 0 C5 0.66 5 1.32 5 2 C6.98 2.66 8.96 3.32 11 4 C11 4.66 11 5.32 11 6 C7.2089881 4.55049545 3.6125362 2.84827434 0 1 C0 0.67 0 0.34 0 0 Z " fill="#A4DD88" transform="translate(110,42)"/>
<path d="M0 0 C0.66 0 1.32 0 2 0 C2 0.66 2 1.32 2 2 C3.32 2 4.64 2 6 2 C5.67 3.32 5.34 4.64 5 6 C3.31237149 4.3545622 1.6459651 2.68711423 0 1 C0 0.67 0 0.34 0 0 Z M5 0 C5.66 0 6.32 0 7 0 C6.67 0.66 6.34 1.32 6 2 C5.67 1.34 5.34 0.68 5 0 Z " fill="#94D86D" transform="translate(155,40)"/>
<path d="M0 0 C1.65 0 3.3 0 5 0 C4.34 1.65 3.68 3.3 3 5 C3.66 5.33 4.32 5.66 5 6 C4.01 6.33 3.02 6.66 2 7 C2 5.35 2 3.7 2 2 C1.34 2 0.68 2 0 2 C0 1.34 0 0.68 0 0 Z " fill="#8DDA65" transform="translate(124,25)"/>
<path d="M0 0 C0.33 0.66 0.66 1.32 1 2 C0.67 2.66 0.34 3.32 0 4 C0.66 4.33 1.32 4.66 2 5 C-0.31 4.67 -2.62 4.34 -5 4 C-4.67 3.01 -4.34 2.02 -4 1 C-3.01 1 -2.02 1 -1 1 C-0.67 0.67 -0.34 0.34 0 0 Z " fill="#A0DF81" transform="translate(63,171)"/>
<path d="M0 0 C1.65 0 3.3 0 5 0 C0.25 4.875 0.25 4.875 -2 6 C-1.34 4.02 -0.68 2.04 0 0 Z " fill="#9EE07F" transform="translate(144,158)"/>
<path d="M0 0 C1.32 0.33 2.64 0.66 4 1 C3.01 2.32 2.02 3.64 1 5 C0.01 4.67 -0.98 4.34 -2 4 C-1.34 2.68 -0.68 1.36 0 0 Z " fill="#A1E280" transform="translate(153,150)"/>
<path d="M0 0 C-4.75 4 -4.75 4 -7 4 C-6.625 2.0625 -6.625 2.0625 -6 0 C-3.50907189 -1.24546405 -2.58919267 -0.7767578 0 0 Z " fill="#A5E289" transform="translate(129,137)"/>
<path d="M0 0 C2.31 0 4.62 0 7 0 C5.35 1.65 3.7 3.3 2 5 C0 1.125 0 1.125 0 0 Z " fill="#A3E281" transform="translate(112,116)"/>
<path d="M0 0 C1.485 0.99 1.485 0.99 3 2 C3.40843923 4.71203652 3.13336867 7.2437142 3 10 C0.70366176 6.55549263 0.45983515 4.06187717 0 0 Z " fill="#A1DB84" transform="translate(52,96)"/>
<path d="M0 0 C-3.46444197 1.85595105 -6.2873953 3.33300647 -10.25 2.5625 C-10.8275 2.376875 -11.405 2.19125 -12 2 C-7.82262526 0.40861915 -4.46839215 -0.21278058 0 0 Z " fill="#9AD67A" transform="translate(87,52)"/>
<path d="M0 0 C0.99 0.33 1.98 0.66 3 1 C2.34 2.65 1.68 4.3 1 6 C0.01 5.67 -0.98 5.34 -2 5 C-1.34 3.35 -0.68 1.7 0 0 Z " fill="#9BDF76" transform="translate(129,25)"/>
<path d="M0 0 C1.32 1.32 2.64 2.64 4 4 C3.34 4 2.68 4 2 4 C2 4.66 2 5.32 2 6 C0.68 6.33 -0.64 6.66 -2 7 C-1.67 6.21625 -1.34 5.4325 -1 4.625 C0.11866511 2.15667503 0.11866511 2.15667503 0 0 Z " fill="#97DE76" transform="translate(151,23)"/>
</svg>
